<svg width="364" height="619" viewBox="0 0 364 619" fill="none" xmlns="http://www.w3.org/2000/svg">
<rect width="26.7043" height="111.427" rx="10" transform="matrix(-0.999131 -0.0416828 -0.0416828 0.999131 171.466 262.336)" fill="#514F4F"/>
<rect x="266.077" y="263.143" width="26.9946" height="96.773" rx="10" transform="rotate(-5.03706 266.077 263.143)" fill="#3F3F3F"/>
<rect x="281.083" y="333.259" width="26.8112" height="71.896" rx="10" transform="rotate(31.1784 281.083 333.259)" fill="#3F3F3F"/>
<path d="M145.856 265.193H292.596L260.85 243.977H179.014L145.856 265.193Z" fill="#3F3F3F"/>
<path d="M145.856 265.193H292.596L262.261 350.055H179.889L145.856 265.193Z" fill="#3F3F3F"/>
<path d="M242.336 227.495L213.44 302.162L271.222 258.477L242.336 227.495Z" fill="#514F4F"/>
<path d="M247.249 213.756L237.216 242.512L280.751 245.827L247.249 213.756Z" fill="#514F4F"/>
<path d="M145.856 265.193H212.728L232.486 303.46V350.939H179.889L145.856 265.193Z" fill="#514F4F"/>
<path d="M145.856 265.315L214.806 266.077L206.987 243.977H179.265L145.856 265.315Z" fill="#514F4F"/>
<rect x="188.287" y="515.358" width="30.9392" height="92.8716" fill="#636363"/>
<rect x="219.226" y="515.358" width="30.9392" height="94.9824" fill="#514F4F"/>
<path d="M219.226 610.341C219.226 607.707 218.826 605.1 218.048 602.667C217.271 600.234 216.132 598.024 214.695 596.162C213.259 594.3 211.553 592.823 209.676 591.815C207.8 590.807 205.788 590.289 203.756 590.289C201.725 590.289 199.713 590.807 197.836 591.815C195.96 592.823 194.254 594.3 192.818 596.162C191.381 598.024 190.242 600.234 189.464 602.667C188.687 605.1 188.287 607.707 188.287 610.341L203.756 610.341H219.226Z" fill="#393939"/>
<path d="M250.165 610.341C250.165 607.707 249.765 605.1 248.988 602.667C248.21 600.234 247.071 598.024 245.634 596.162C244.198 594.3 242.492 592.823 240.616 591.815C238.739 590.807 236.727 590.289 234.696 590.289C232.664 590.289 230.653 590.807 228.776 591.815C226.899 592.823 225.193 594.3 223.757 596.162C222.321 598.024 221.181 600.234 220.404 602.667C219.626 605.1 219.226 607.707 219.226 610.341L234.696 610.341H250.165Z" fill="#393939"/>
<rect x="188.287" y="608.23" width="30.9392" height="10.5536" fill="#393939"/>
<rect x="219.226" y="608.23" width="30.9392" height="10.5536" fill="#393939"/>
<rect width="26.0369" height="83.5626" rx="10" transform="matrix(-0.962569 -0.271037 -0.271037 0.962569 187.379 298.351)" fill="#636363"/>
<path d="M225.414 358.895H262.793L290.828 515.358H225.414V358.895Z" fill="#3F3F3F"/>
<path d="M178.181 363.314H233.37V515.358H140.552L178.181 363.314Z" fill="#514F4F"/>
<path d="M178.563 347.403H263.425L262.718 355.359L263.425 363.314H178.563L179.27 355.359L178.563 347.403Z" fill="#636363"/>
<circle cx="221.436" cy="306.298" r="4.86187" fill="#3F3F3F"/>
<circle cx="221.436" cy="337.237" r="4.86187" fill="#3F3F3F"/>
<ellipse cx="221.436" cy="373.922" rx="4.86187" ry="5.30386" fill="#3F3F3F"/>
<path d="M202.529 227.495L231.425 302.162L173.643 258.477L202.529 227.495Z" fill="#636363"/>
<path d="M197.616 213.756L207.649 242.512L164.114 245.827L197.616 213.756Z" fill="#636363"/>
<path d="M228.066 244.862H251.933V320L240 312.844L228.066 320V244.862Z" fill="#AA3232"/>
<path d="M244.507 181.949C254.441 204.323 249.554 228.129 233.59 235.123C217.626 242.117 196.631 229.649 186.697 207.276C176.762 184.903 181.65 161.097 197.614 154.103C213.577 147.109 234.572 159.576 244.507 181.949Z" fill="#393939"/>
<path d="M259.124 207.062C250.276 229.88 226.906 242.182 206.926 234.538C186.945 226.895 177.92 202.2 186.768 179.381C195.616 156.562 218.986 144.26 238.967 151.904C258.947 159.548 267.972 184.243 259.124 207.062Z" fill="#393939"/>
<path d="M255.024 210.299C255.024 234.161 239.81 253.505 221.042 253.505C202.274 253.505 187.059 234.161 187.059 210.299C187.059 186.437 202.274 167.093 221.042 167.093C239.81 167.093 255.024 186.437 255.024 210.299Z" fill="#FBD9BA"/>
<circle r="11.1623" transform="matrix(-1 0 0 1 236.432 208.028)" stroke="black" stroke-width="1.44296"/>
<circle r="11.1623" transform="matrix(-1 0 0 1 206.774 208.028)" stroke="black" stroke-width="1.44296"/>
<path d="M218.342 206.696C218.675 205.932 219.188 205.292 219.821 204.851C220.454 204.409 221.181 204.183 221.92 204.2C222.658 204.216 223.378 204.473 223.996 204.942C224.614 205.411 225.105 206.072 225.414 206.851" stroke="black" stroke-width="1.44296"/>
<rect width="4.46911" height="1.42199" rx="0.710995" transform="matrix(-1 0 0 1 251.77 206.708)" fill="black"/>
<rect width="4.46911" height="1.62513" rx="0.793626" transform="matrix(-1 0 0 1 195.702 206.708)" fill="black"/>
<rect x="177.105" y="4.84204" width="4.96557" height="6.45595" fill="#C7C3C3"/>
<path d="M182.071 0C181.419 -7.5825e-09 180.773 0.125241 180.171 0.368572C179.568 0.611904 179.021 0.96856 178.56 1.41818C178.099 1.8678 177.733 2.40157 177.483 2.98902C177.234 3.57648 177.105 4.20611 177.105 4.84196C177.105 5.47782 177.234 6.10745 177.483 6.6949C177.733 7.28235 178.099 7.81613 178.56 8.26574C179.021 8.71536 179.568 9.07202 180.171 9.31535C180.773 9.55868 181.419 9.68392 182.071 9.68392L182.071 4.84196L182.071 0Z" fill="#C7C3C3"/>
<rect x="182.071" y="4.84204" width="4.96557" height="6.45595" fill="#8D8888"/>
<path d="M182.071 0C182.723 -7.5825e-09 183.369 0.125241 183.971 0.368572C184.574 0.611904 185.121 0.96856 185.582 1.41818C186.043 1.8678 186.409 2.40157 186.659 2.98902C186.908 3.57648 187.037 4.20611 187.037 4.84196C187.037 5.47782 186.908 6.10745 186.659 6.6949C186.409 7.28235 186.043 7.81613 185.582 8.26574C185.121 8.71536 184.574 9.07202 183.971 9.31535C183.369 9.55868 182.723 9.68392 182.071 9.68392L182.071 4.84196L182.071 0Z" fill="#8D8888"/>
<path d="M0 156.557C4.25987e-06 118.032 19.3568 81.0846 53.8121 53.8433C88.2675 26.602 134.999 11.298 183.726 11.298L91.8631 156.557L66.1414 140.215L0 156.557Z" fill="#FB4D4D"/>
<path d="M363.314 156.557C363.314 118.032 343.87 81.0846 309.26 53.8433C274.649 26.602 227.707 11.298 178.761 11.298L271.038 156.557L296.875 140.215L363.314 156.557Z" fill="#AA3232"/>
<rect x="177.105" y="138.803" width="4.96557" height="140.534" fill="#C7C3C3"/>
<rect x="182.071" y="138.803" width="4.96557" height="140.534" fill="#8D8888"/>
<path d="M271.451 156.557C271.451 118.032 261.991 81.0846 245.151 53.8433C228.312 26.602 205.472 11.298 181.657 11.298C157.842 11.298 135.003 26.602 118.163 53.8433C101.324 81.0846 91.8633 118.032 91.8633 156.557L136.986 148.386L182.109 140.215L226.78 148.386L271.451 156.557Z" fill="#DF4444"/>
<circle cx="178.121" cy="289.502" r="18.1215" fill="#FBD9BA"/>
<ellipse rx="34.931" ry="19.9091" transform="matrix(0.942659 0.333758 -0.337768 0.941229 226.712 178.588)" fill="#393939"/>
<path d="M194.475 240.442H251.933V261.657H194.475V240.442Z" fill="#DF4444"/>
</svg>
