<svg width="50" height="50" viewBox="0 0 50 50" fill="none" xmlns="http://www.w3.org/2000/svg">
<rect width="50" height="50" rx="14" fill="#262626"/>
<rect x="12" y="9" width="26" height="32" rx="4" fill="#D9D9D9"/>
<circle cx="25" cy="18" r="3.5" fill="#D9D9D9" stroke="black"/>
<mask id="path-4-inside-1_89_20" fill="white">
<path d="M32 28C32 27.0807 31.8189 26.1705 31.4672 25.3212C31.1154 24.4719 30.5998 23.7003 29.9497 23.0503C29.2997 22.4002 28.5281 21.8846 27.6788 21.5328C26.8295 21.1811 25.9193 21 25 21C24.0807 21 23.1705 21.1811 22.3212 21.5328C21.4719 21.8846 20.7003 22.4002 20.0503 23.0503C19.4002 23.7003 18.8846 24.4719 18.5328 25.3212C18.1811 26.1705 18 27.0807 18 28L25 28H32Z"/>
</mask>
<path d="M32 28C32 27.0807 31.8189 26.1705 31.4672 25.3212C31.1154 24.4719 30.5998 23.7003 29.9497 23.0503C29.2997 22.4002 28.5281 21.8846 27.6788 21.5328C26.8295 21.1811 25.9193 21 25 21C24.0807 21 23.1705 21.1811 22.3212 21.5328C21.4719 21.8846 20.7003 22.4002 20.0503 23.0503C19.4002 23.7003 18.8846 24.4719 18.5328 25.3212C18.1811 26.1705 18 27.0807 18 28L25 28H32Z" fill="#D9D9D9" stroke="black" stroke-width="2" mask="url(#path-4-inside-1_89_20)"/>
<line x1="18" y1="31.5" x2="32" y2="31.5" stroke="black"/>
<line x1="18" y1="35.5" x2="32" y2="35.5" stroke="black"/>
</svg>
